<svg width="345" height="429" viewBox="0 0 345 429" fill="none" xmlns="http://www.w3.org/2000/svg">
<path d="M214.7 349.7C217 353.5 209.1 368.2 207.9 374.9C206.8 381.7 201.9 404.7 198.5 407.3C195.1 409.9 194 404.7 194 404.7C194 404.7 193.6 401.3 191.4 396.4C189.2 391.5 185 394.9 189.2 390.4C193.3 385.9 193 389.3 194.5 383.6C196 378 193 379.1 196 375.3C199 371.5 194.9 374.2 200.1 371.2C205.4 368.2 206.1 368.6 207.3 365.9C208.4 363.3 208.4 366.3 208.8 361C209.1 355.7 212.5 345.9 214.7 349.7Z" fill="#E9ECE0"/>
<path d="M26.0002 314.7C29.0002 319.2 30.1002 320.4 28.3002 321.1C26.4002 321.9 25.3002 320.3 22.6002 320.7C20.0002 321.1 12.4002 304.1 20.0002 306C20.0002 306 23.8002 304.1 25.3002 308.6C26.8002 313.2 23.0002 310.1 26.0002 314.7Z" fill="#E9ECE0"/>
<path d="M49.4003 125.2C49.0003 123.3 49.0003 123.7 50.2003 117.3C51.3003 110.9 53.2003 114.7 54.7003 113.2C56.2003 111.7 55.8003 112.8 58.8003 113.2C61.8003 113.6 61.1003 113.6 63.3003 110.9C65.6003 108.3 65.6003 107.1 68.6003 105.2C71.6003 103.3 70.5003 105.2 71.6003 107.8C72.7003 110.4 67.8003 113.1 64.1003 115.3C60.3003 117.6 64.5003 118.7 66.0003 122.8C67.5003 126.9 65.6003 126.6 62.2003 131.5C58.8003 136.4 53.5003 140.9 53.5003 140.9C50.1003 145 50.1003 144.7 48.6003 143.5C47.1003 142.4 46.0003 139 44.5003 136C43.0003 133 43.7003 131.9 47.5003 130C51.3003 128.3 49.8003 127.1 49.4003 125.2Z" fill="#E9ECE0"/>
<path d="M184.6 362.5C181.2 362.5 178.6 363.3 176.3 361.4C174 359.5 172.9 356.1 165.4 356.9C157.9 357.7 153.3 361.4 151.1 357.7C148.8 353.9 160.5 345.3 153 343C145.5 340.7 147 339.6 143.6 340.4C140.2 341.2 139.5 341.2 139.5 342.7C139.5 344.2 136.1 341.9 136.9 335.9C137.7 329.9 138 334 137.7 329.9C137.3 325.8 135.1 325.8 134.7 323.9C134.3 322 133.9 322.8 132.1 321.6C130.2 320.5 129.1 320.1 128.7 318.2C128.3 316.3 129.1 317.4 129.5 312.5C129.9 307.6 131 306.9 128 305.7C125 304.6 122.7 301.2 124.2 299.3C125.7 297.4 127.2 295.9 131.4 297.4C131.4 297.4 138.9 304.6 141.2 301.5C143.5 298.5 146.9 295.9 152.1 294C157.4 292.1 161.1 292.9 164.9 292.5C168.7 292.1 169.4 293.6 172 295.5C174.6 297.4 178.4 291 182.2 295.9C186 300.8 181.4 300.4 183 304.9C184.5 309.4 184.1 314.7 187.2 310.5C190.2 306.4 190.2 307.1 190.2 302.6C190.2 298.1 185.7 298.5 190.2 298.1C194.7 297.7 193.2 290.2 198.1 294.7C203 299.2 205.3 300.7 204.5 305.6C203.7 310.5 198.1 309.4 200.4 314.6C202.7 319.9 203 317.6 205.7 321.4C208.3 325.2 208.7 324.8 208 329.7C207.2 334.6 206.5 349.7 203.1 353.8C199.7 357.9 199.7 356.8 196.3 357.6C192.9 358.4 191.4 357.6 189.9 359.5C188 361.4 188 362.5 184.6 362.5Z" fill="#E9ECE0"/>
<path d="M334.5 374.9C332.2 375.7 332.2 374.9 325.8 375.3C319.4 375.7 322.4 377.6 320.9 380.6C319.4 383.6 318.3 383.6 310.7 385.5C303.2 387.4 306.2 383.2 306.2 383.2C306.2 383.2 306.6 376.4 308.1 376C309.6 375.6 311.5 375.6 313.7 375.6C316 375.6 316.3 374.8 317.8 371.8C319.3 368.8 320.4 366.9 323.8 364.3C327.2 361.7 327.2 363.2 334 366.9C340.9 370.8 336.7 374.2 334.5 374.9Z" fill="#E9ECE0"/>
<path d="M342.4 265.7C345 268 342 275.9 337.9 278.9C333.7 281.9 336 280 333 284.5C330 289 324 291.3 321.7 292.4C319.4 293.5 319.1 294.3 314.2 298.8C314 299 313.8 299.2 313.6 299.4C309.6 303.4 312.4 304.6 313.1 308.2C313.9 312 319.1 314.6 324.4 315.7C329.7 316.8 329.3 315.7 331.9 319.5C334.5 323.3 329.3 328.2 323.6 328.9C317.9 329.7 317.6 325.5 311.9 327C306.2 328.5 310.8 337.9 304.4 343.6C303.4 344.5 302.7 345.2 302.2 345.7C299.3 348.8 302.3 347.7 301 349.3C299.5 351.2 302.9 353.8 305.9 357.2C308.9 360.6 309.7 362.1 309.3 367C308.9 371.9 306.3 370.4 299.1 371.9C291.9 373.4 279.5 370 277.3 368.1C275 366.2 284.4 365.8 282.9 362.5C281.4 359.1 276.1 355.7 277.3 353.8C278.4 351.9 279.6 348.9 278.8 346.6C278 344.3 277.3 344 272.8 342.1C268.3 340.2 270.5 343.2 267.2 344.4C264.5 345.3 264.2 345.2 260.2 343.7C259.2 343.3 257.9 342.8 256.3 342.2C248.4 339.2 245 343 245 343C235.2 344.1 237.1 337 240.5 335.1C243.9 333.2 240.5 331.7 239.4 329.1C238.3 326.5 239 327.2 237.5 321.6C236 315.9 237.5 319 238.3 317.1C239.1 315.2 240.2 313.7 240.2 311.8C240.2 309.9 235.7 305.8 231.9 303.9C228.1 302 230.8 298.2 233.8 296C236.8 293.7 233 290 230.8 286.6C228.5 283.2 225.2 283.2 225.2 281C225.2 278.7 226 277.6 224.1 274.6C222.2 271.6 210.5 270.8 213.9 266.7C217.3 262.6 219.2 269.3 220.7 269.3C222.2 269.3 221.8 273.5 225.6 270.8C229.4 268.2 227.5 270.4 229.4 271.6C231.3 272.7 232 276.5 233.9 276.9C235.8 277.3 236.9 276.1 239.5 274.3C242.1 272.4 241.4 272.4 244.4 271.7C247.4 270.9 248.5 270.2 248.9 264.9C249.3 259.6 251.9 258.1 253.8 257C255.7 255.9 254.6 255.9 258.7 253.2C262.8 250.6 262.8 249.8 260.6 245.7C258.3 241.6 251.6 247.2 246.3 245.3C241 243.4 256.8 243 259.1 241.2C261.4 239.3 262.1 241.6 266.6 241.6C271.1 241.6 272.6 240.8 276.4 242C280.2 243.1 279.4 243.9 279 246.5C278.6 249.1 277.5 247.3 273.3 249.1C269.2 251 273.3 252.5 274.8 254.7C276.3 257 274.4 257.3 271.8 260.4C269.2 263.4 270.7 263.8 271.8 264.2C272.9 264.6 273.7 266.1 277.1 267.2C280.5 268.3 279.7 268.3 279.7 271.7C279.7 272.9 279.8 274.1 280 275.3C280.4 277.4 281.3 279.1 283.1 278.9C285.7 278.5 284.6 271.4 287.2 268.4C289.8 265.4 286.4 264.3 286.1 259.4C285.7 254.5 284.2 255.2 290.2 251.9C296.2 248.5 292.8 251.9 297 254.9C301.1 257.9 297 265.4 298.1 267.3C299.2 269.2 298.5 269.5 295.1 270.7C291.7 271.8 293.6 273.3 292.5 276.4C291.4 279.4 293.3 281.7 296.6 282C297.6 282.1 298.3 282.2 298.8 282.1C300 282.1 300.5 281.7 302.6 281.2C305.6 280.4 306.7 273.4 304.2 270.7L304.1 270.6C301.5 268 301.5 263.8 300.7 261.2C299.9 258.6 301.5 252.2 301.1 249.1C300.7 246.1 298.8 246.5 293.2 243.8C287.5 241.2 292.1 239.3 293.6 235.1C295.1 231 294.7 231.7 301.5 227.9C308.3 224.1 310.5 225.6 317.7 224.5C324.9 223.4 326 223 330.9 224.1C335.8 225.2 335 225.2 341.1 230.1C347.1 235 343.4 234.6 341.1 238.8C338.8 242.9 341.5 245.2 339.2 251.2C336.9 257.2 338.8 255.3 339.2 258C339.3 258.5 339.3 259.1 339.4 259.6C339.6 261.6 340.3 263.9 342.4 265.7Z" fill="#E9ECE0"/>
<path d="M284 405.4C282.9 411.4 284.8 410.7 282.1 414.1C279.5 417.5 276.8 419.4 274.2 418.6C271.6 417.8 264.8 417.1 261.4 419C258 420.9 259.1 423.5 254.2 420.1C249.3 416.7 248.9 416 246.7 414.5C244.4 413 241.1 411.1 241.1 411.1C241.1 411.1 235.5 409.6 231.3 409.6C227.2 409.6 226.4 406.6 224.5 404.3C222.6 402 224.5 401.7 220.4 400.2C216.3 398.7 217.4 393.8 218.5 391.5C219.6 389.3 221.5 390.4 224.5 389.6C227.5 388.8 224.5 384 223.4 381.7C222.3 379.4 219.3 379.1 224.2 374.2C229.1 369.3 228.7 368.9 234 368.2C239.3 367.4 241.5 367.1 246.4 371.2C251.3 375.3 253.9 380.6 255.1 385.1C256.2 389.6 257.4 391.1 259.2 391.9C261 392.7 265.2 391.9 265.2 391.9L267.1 390C267.1 390 270.5 383.6 272.7 387.4C275 391.2 271.9 389.7 275.3 394.6C278.7 399.5 278.3 398.4 280.2 400.2C282.1 402 285.1 399.4 284 405.4Z" fill="#E9ECE0"/>
<path d="M124.7 382.1C125.1 385.9 125.8 384.4 122.1 385.9C118.3 387.4 118 387.4 118.7 388.9C119.5 390.4 116.8 394.6 114.2 390.8C111.6 387 108.6 381 105.5 383.7C102.5 386.3 102.9 386 101.7 387.8C100.6 389.7 100.2 390.4 98.3001 390.8C96.4001 391.2 91.9001 391.2 87.4001 390.4C82.9001 389.6 81.0001 388.5 78.4001 385.5C75.8001 382.5 77.3001 381.4 72.8001 380.6C68.3001 379.8 69.8001 381 64.1001 380.2C58.5001 379.4 56.2001 373 50.5001 374.5C44.9001 376 46.4001 379.8 41.1001 377.5C41.1001 377.5 44.1001 375.6 41.9001 370.3C39.6001 365 36.6001 369.5 38.1001 362.8C39.6001 356 38.9001 357.5 40.7001 353C42.6001 348.5 41.5001 347.3 42.2001 341.7C42.4001 340 42.6001 339.3 42.8001 339C43.2001 338.2 43.2001 339.4 42.2001 334.2C40.7001 326.7 44.5001 318.4 43.0001 310.1C41.5001 301.8 36.2001 301.4 31.3001 301.4C26.4001 301.4 23.0001 298 20.7001 296.5C18.4001 295 18.1001 295.4 16.9001 296.9C15.8001 298.4 16.5001 304.4 12.8001 303.3C9.00013 302.2 5.30013 296.2 5.30013 287.5C5.30013 278.8 5.70013 282.2 9.10013 272.4C12.5001 262.6 9.10013 264.9 9.50013 260.7C9.60013 259.6 10.8001 258.5 12.5001 257.4C17.2001 254.3 25.8001 250.8 26.1001 245.3C26.5001 237.8 20.5001 223.5 15.2001 223.5C9.90012 223.5 11.8001 226.1 5.80013 224.6C-0.19987 223.1 -0.19987 211 1.30013 204.3C2.80013 197.5 3.90013 187 9.60013 186.6C15.3001 186.2 19.4001 193.4 20.5001 190C21.6001 186.6 23.1001 184.4 21.6001 181.3C20.1001 178.3 15.6001 179.4 14.1001 178.7C12.6001 177.9 11.5001 177.2 11.8001 174.6C12.2001 172 11.0001 154.6 16.7001 150.1C22.3001 145.6 28.8001 149 35.1001 154.3C41.5001 159.6 40.4001 156.9 45.7001 164.5C51.0001 172 52.1001 172.8 54.4001 164.5C54.7001 163.3 54.8001 162.4 54.8001 161.5C54.6001 156.4 49.3001 156.6 54.8001 152.4C61.2001 147.5 67.2001 148.3 68.4001 142.6C69.5001 136.9 66.9001 136.2 70.3001 133.6C73.7001 131 69.9001 127.6 77.1001 128.3C84.3001 129.1 89.9001 129.1 86.1001 138.5C82.3001 147.9 78.2001 149.8 78.9001 153.6C79.7001 157.4 83.4001 158.1 85.3001 157.8C87.2001 157.4 88.3001 150.6 90.9001 154.8C93.5001 158.9 93.5001 158.9 96.2001 161.2C98.8001 163.4 101.9 166.5 104.1 163.8C106.4 161.2 109 156.7 108.6 154.4C108.2 152.1 107.8 150.6 104.8 152.5C101.8 154.4 98.4001 154.4 98.0001 151.7C97.6001 149.1 97.6001 146.1 97.2001 144.9C96.8001 143.8 96.4001 143.8 94.6001 144.1C94.3001 144.2 94.0001 144.2 93.7001 144.3C92.4001 144.6 91.6001 144.9 91.6001 144.9C91.6001 144.9 87.5001 142.6 92.0001 138.1C96.5001 133.6 97.7001 133.2 96.9001 132.1C96.1001 131 95.0001 129.1 92.4001 128.7C89.8001 128.3 88.6001 125.7 88.6001 125.7C88.6001 125.7 98.8001 120.4 95.4001 118.2C92.0001 115.9 87.1001 119.7 88.2001 115.6C88.2001 115.6 89.3001 104.7 98.0001 102.4C106.7 100.1 114.6 100.9 116.1 104.7C117.6 108.5 118 111.9 120.6 110C123.2 108.1 124.4 99.5 126.3 98C128.2 96.5 132.3 99.9 139.9 97.2C143.8 95.8 142.8 92.7 141.5 89.9C140.5 92.2 140.1 94.3 137.5 93.8C133.4 93.1 126.6 91.1 126.6 91.1L111.6 97.3C111.6 97.3 106.1 100 98.6001 99.4C91.1001 98.7 92.4001 97.3 89.0001 97.3C86.6001 97.3 86.2001 97.6 83.8001 98.1C82.8001 98.3 81.4001 98.5 79.4001 98.7C72.6001 99.4 72.6001 100.1 68.5001 101.4C64.4001 102.8 67.1001 100.7 62.3001 102.8C57.5001 104.9 57.5001 100.1 54.1001 104.9C50.7001 109.7 50.0001 113.1 47.3001 115.8C44.6001 118.5 40.5001 118.5 38.4001 122.6C36.4001 126.7 35.7001 128.8 36.4001 130.8C37.8001 134.9 32.3001 131.5 37.1001 137C41.9001 142.5 42.6001 139.7 41.2001 143.8C39.8001 147.9 42.6001 147.2 41.2001 150C39.8001 152.7 39.8001 154.8 35.7001 150.7C31.6001 146.6 32.3001 140.4 27.5001 142.5C22.7001 144.6 24.1001 136.4 22.7001 134.3C21.3001 132.2 20.0001 127.5 17.9001 130.9C15.9001 134.3 17.2001 137.7 15.9001 134.3C14.5001 130.9 19.3001 124.7 25.5001 112.4C31.6001 100.1 27.6001 100.1 31.0001 91.2C34.4001 82.3 59.7001 84.4 65.9001 86.4C69.9001 87.7 73.0001 84.7 76.4001 82.1C78.2001 80.7 80.1001 79.4 82.3001 78.9C88.5001 77.5 85.7001 81.6 93.9001 80.9C102.1 80.2 123.3 68.6 121.9 54.3C120.5 39.9 132.8 28.3 144.4 22.9C156 17.4 161.5 25 167.6 22.9C173.8 20.9 188.1 3.09998 194.9 0.999983C201.7 -1.10002 203.1 2.99998 195.6 7.09998C195.6 7.09998 180.6 13.3 181.9 24.9C183.3 36.5 186.7 37.2 186 46.1C185.3 55 180.5 60.4 185.3 66.6C190.1 72.8 191.5 74.1 188 80.3C184.6 86.5 177.8 91.2 177.8 97.4C177.8 103.6 168.2 105.6 162.8 97.4C157.3 89.2 158.7 84.4 153.2 84.4C147.7 84.4 148.4 83.7 144.3 86.4C144.2 86.5 144.1 86.5 144 86.6C145.7 89 147.4 92.7 149.7 95C153.5 98.8 166.6 104.4 170.8 110.8C174.9 117.2 170 122.8 172.7 131.5C175.3 140.2 168.2 136.4 165.2 139.4C162.2 142.4 160.7 140.5 165.6 144.7C170.5 148.8 172.8 149.2 172.4 151.1C172 153 166.4 154.9 170.5 155.2C174.6 155.6 172.4 166.5 180.3 168C188.2 169.5 188.2 165 198 167.2C207.8 169.5 212.3 171.3 213.8 179.6C215.3 187.9 199.9 199.6 200.6 206.3C201.4 213.1 201.4 211.9 202.5 216.1C203.6 220.2 198 222.9 195 219.1C192 215.3 194.6 209.7 191.6 208.9C188.6 208.1 187.5 208.5 186.3 211.9C185.2 215.3 182.5 213.8 183.3 216.4C184.1 219 191.6 218.7 185.6 220.2C179.6 221.7 183 213 181.8 211.2C180.7 209.3 178.8 210.1 176.9 210.1C175 210.1 189 202.6 183.3 198.4C177.7 194.2 177.3 192.7 173.9 195.8C170.5 198.8 171.6 199.2 170.9 203C170.1 206.8 170.5 210.1 172 215.1C173.5 220 167.9 227.2 167.9 234.7C167.9 242.2 167.5 243.4 164.5 247.5C161.5 251.6 158.9 254.7 158.9 254.7C158.9 254.7 155.9 256.6 151 256.6C149.5 256.6 148 256.1 146.6 255.5C143.4 254.2 140.4 252.3 138.6 254.7C136 258.1 134.8 260.7 136 263.4C137.1 266 145 273.2 141.6 276.6C138.2 280 135.6 281.9 130.7 280C125.8 278.1 123.9 274.4 121.7 277.4C119.4 280.4 119.1 283.4 119.1 283.4C119.1 283.4 123.6 281.1 126.3 282.6C128.9 284.1 129.7 284.1 131.6 284.8C133.5 285.6 126.3 293.1 126.3 293.1L121.4 295.4C121.4 295.4 116.5 294.6 113.9 297.7C111.3 300.7 106.4 299.2 109 301.8C111.6 304.4 120.7 301 118.4 305.6C116.7 309 113.6 314.6 114.3 319.3C114.5 320.9 115.2 322.4 116.6 323.7C121.9 328.6 123 327.8 123.4 335C123.8 342.2 116.2 340.6 113.2 344.4C110.2 348.2 108.7 345.2 106.8 348.5C104.9 351.9 102.7 350.8 104.9 353.8C107.2 356.8 111.3 354.9 108.3 358.3C105.3 361.7 95.1001 362.4 99.3001 363.6C103.5 364.7 106.1 362.1 112.1 365.9C118.1 369.7 121.9 368.2 123.4 373.8C124.3 379.1 124.3 378.3 124.7 382.1Z" fill="#E9ECE0"/>
<path d="M176.7 381.7C183.1 390 184.2 389.6 182 391.5C179.7 393.4 177.9 392.3 176 393.4C174.1 394.5 168.1 391.9 166.6 386.6C165.1 381.3 166.6 381.7 163.2 380.2C159.8 378.7 158.3 372.3 161.7 372.7C161.7 372.7 164.7 374.2 167.7 378.3C170.7 382.4 169.6 384.3 172.2 383.2C174.8 382.1 170.3 373.4 176.7 381.7Z" fill="#E9ECE0"/>
<path d="M174.4 267.2C176.7 258.9 171.8 258.2 175.2 257.4C178.6 256.6 182.4 258.9 179.7 254.8C177.1 250.7 173.3 241.6 177.1 242C177.1 242 183.1 248 185 253.7C186.9 259.4 189.5 257.9 186.5 264.3C183.5 270.7 183.5 270.7 181.2 272.2C178.9 273.6 172.2 275.5 174.4 267.2Z" fill="#E9ECE0"/>
<path d="M308.1 393.4C306.6 399.8 305.1 398.7 300.9 402.4C296.8 406.2 294.5 406.2 295.3 410.3C296.1 414.4 296.4 417.5 296.4 419C296.4 420.5 300.2 420.1 296.4 423.5C292.6 426.9 290 428.4 290 428.4C290 428.4 288.1 425.4 288.1 417.5C288.1 409.6 288.5 407.3 288.5 403.9C288.5 400.5 286.2 400.9 285.9 399C285.5 397.1 286.3 395.6 284.8 394.1C283.3 392.6 281.4 383.2 277.6 383.2C273.8 383.2 277.2 378.7 277.2 378.7C277.2 378.7 280.6 373.4 285.5 376.4C290.4 379.4 289.3 381.3 291.9 382.1C294.5 382.9 291.9 379.8 296.4 383.6C300.9 387.4 299.8 385.5 302.8 389.2C305.9 393 309.6 387 308.1 393.4Z" fill="#E9ECE0"/>
<path d="M146.9 370.8C149.2 374.6 151 376.4 149.5 379.5C148 382.5 147.2 384.4 143.1 384.8C139 385.2 135.9 384 135.9 384C135.9 384 133.6 377.6 132.5 376.9C131.4 376.1 130.2 376.9 129.9 375.8C129.5 374.7 131 374.3 129.9 370.9C128.8 367.5 128.8 367.5 125.8 366.8C122.8 366 122.8 367.6 121.7 364.5C120.6 361.4 124.7 353.2 127.7 356.2C127.7 356.2 130.3 366.7 136.7 367.9C143.2 368.9 144.7 367 146.9 370.8Z" fill="#E9ECE0"/>
</svg>
